<?xml version="1.0" encoding="UTF-8"?>
<svg width="26.6004734px" height="30.8518791px" viewBox="0 0 26.6004734 30.8518791" version="1.1" xmlns="http://www.w3.org/2000/svg" xmlns:xlink="http://www.w3.org/1999/xlink">
    <title>Combined Shape</title>
    <g id="Symbols" stroke="none" stroke-width="1" fill="none" fill-rule="evenodd">
        <g id="Arrow/24/White" transform="translate(-7.699763, -5.444372)" fill="#FFFFFF" fill-rule="nonzero">
            <path d="M20.9880895,36.2962507 L20.9183834,36.2941711 C20.8968013,36.2930451 20.8752377,36.2914717 20.8537074,36.2894507 C20.8208878,36.2863397 20.7888389,36.2823113 20.756918,36.2772873 C20.7407953,36.2747765 20.7241471,36.2718858 20.7075401,36.268723 C20.6796377,36.2633779 20.6522864,36.2573941 20.6250826,36.2506668 C20.6018528,36.2449481 20.5785673,36.2386154 20.5554097,36.2317318 C20.5343402,36.2254504 20.5132147,36.2186797 20.492214,36.2114469 C20.4660653,36.2024566 20.440164,36.1927527 20.4144832,36.1823339 C20.3910504,36.1728184 20.3678063,36.1627215 20.3447711,36.1520311 C20.3219705,36.1414489 20.2993504,36.13027 20.2769554,36.1185067 C20.2531302,36.1060036 20.2295963,36.0928524 20.2063465,36.0790437 C20.1859884,36.0669298 20.1658148,36.0543101 20.1458753,36.0411832 C20.1233437,36.0263827 20.101103,36.0108985 20.0791915,35.994768 C20.0198812,35.9510826 19.9627332,35.9024732 19.9085103,35.8490744 L20.0157994,35.9455271 C19.9990657,35.9318229 19.9825522,35.9177178 19.9662719,35.9032118 L19.9085103,35.8490744 C19.9055675,35.8461762 19.9026386,35.8432693 19.8997237,35.8403535 C19.8974222,35.8380525 19.89454,35.8351483 19.8916664,35.8322304 L8.14698552,23.9063045 C7.54417243,23.2941887 7.55171374,22.3092943 8.1638295,21.7064812 C8.77594526,21.1036681 9.76083969,21.1112094 10.3636528,21.7233252 L19.4167633,30.9163716 L19.1891964,7.01487228 C19.1809827,6.15580194 19.8707382,5.45272927 20.7298086,5.44444294 C21.5888789,5.43630181 22.2919516,6.12605737 22.3001653,6.98512772 L22.5287633,30.9693716 L31.6363472,21.7233252 C32.2014845,21.1494666 33.1024354,21.1069724 33.7172146,21.6006049 L33.8361705,21.7064812 C34.4482863,22.3092943 34.4558276,23.2941887 33.8530145,23.9063045 L22.1083336,35.8322304 C22.1054355,35.8351733 22.1025285,35.8381021 22.0996128,35.8410171 C22.0973614,35.8432693 22.0944325,35.8461762 22.0914897,35.8490744 L22.0522276,35.8864631 C22.0278056,35.908929 22.0028361,35.9304727 21.9773639,35.9510938 L22.0914897,35.8490744 C22.0432127,35.8966177 21.9926169,35.9403644 21.9400726,35.9803173 C21.9118013,36.001842 21.8832092,36.0220697 21.8541129,36.0412204 C21.8342289,36.0542827 21.8140337,36.0669167 21.793622,36.0790425 C21.7704294,36.0928372 21.7469217,36.1059745 21.7231575,36.1184556 C21.6994856,36.1308814 21.6756775,36.1426094 21.6516462,36.1536911 C21.6302148,36.1635708 21.6084429,36.1730059 21.5865078,36.1819202 C21.5604616,36.1925183 21.5342498,36.202348 21.5078432,36.2114457 C21.4867629,36.2186875 21.4656146,36.2254649 21.4443572,36.2317792 C21.4234099,36.2380276 21.4021226,36.2438627 21.3807441,36.2492372 C21.3504013,36.2568345 21.3202269,36.2634619 21.2899138,36.2691839 C21.2781526,36.2714297 21.2658394,36.2736047 21.2535067,36.2756307 C21.2175133,36.2815145 21.1817983,36.286109 21.1459874,36.2894662 C21.1256366,36.2913896 21.1049498,36.2929166 21.0842456,36.2940317 C21.0599976,36.2953284 21.0359562,36.2960666 21.0119105,36.2962507 L20.9880895,36.2962507 Z" id="Combined-Shape"></path>
        </g>
    </g>
</svg>