<svg width="32" height="32" viewBox="0 0 32 32" xmlns="http://www.w3.org/2000/svg" xmlns:xlink="http://www.w3.org/1999/xlink">
    <defs>
        <path id="fdqua5ktpa" d="M0 0h16.319v15.175H0z"/>
        <path id="db9vbe32dc" d="M0 0h10.314v10.284H0z"/>
    </defs>
    <g fill="none" fill-rule="evenodd">
        <g transform="translate(15.681 7.597)">
            <mask id="k3lwiums4b" fill="#fff">
                <use xlink:href="#fdqua5ktpa"/>
            </mask>
            <path d="M14.432 1.823a8.706 8.706 0 0 0-1.923-1.68c.89 1.902.445 4.249-1.238 5.643a4.74 4.74 0 0 1-6.657-.602C3.359 3.694 3.199 1.65 4.042 0a8.921 8.921 0 0 0-1.113.792A8.08 8.08 0 0 0 .006 7.356a3.047 3.047 0 0 1 2.955 1.03c1.08 1.3.906 3.234-.38 4.297a1.937 1.937 0 0 0-.176.14c2.94 2.919 7.722 3.171 10.978.478 3.464-2.87 3.925-8.022 1.049-11.478" fill="#FFF" mask="url(#k3lwiums4b)"/>
        </g>
        <g transform="translate(.29)">
            <mask id="gzcaqw7hvd" fill="#fff">
                <use xlink:href="#db9vbe32dc"/>
            </mask>
            <path d="M.033 4.538a5.485 5.485 0 0 0 .064 1.617C.589 4.917 1.86 4.094 3.243 4.268a2.985 2.985 0 0 1 2.605 3.297 2.965 2.965 0 0 1-2.144 2.506c.27.08.555.142.858.173 1.636.206 3.193-.412 4.273-1.505a1.963 1.963 0 0 1-.81-1.807 1.946 1.946 0 0 1 2.16-1.681c.032 0 .08.017.128.017C10.376 2.65 8.422.337 5.769.036 2.94-.297.367 1.716.033 4.538" fill="#FFF" mask="url(#gzcaqw7hvd)"/>
        </g>
        <path d="M23.833 24.227c-5.298 0-9.607-4.3-9.607-9.585 0-5.287 4.31-9.587 9.607-9.587.214 0 .422.018.632.032a15.062 15.062 0 0 0-9.355-3.241c-1.298 0-2.557.163-3.759.47.414.858.653 1.816.653 2.83 0 3.61-2.944 6.55-6.564 6.55a6.528 6.528 0 0 1-3.942-1.326A14.995 14.995 0 0 0 0 16.923C0 25.25 6.765 32 15.11 32c6.31 0 11.714-3.86 13.976-9.342a9.56 9.56 0 0 1-5.253 1.57" fill="#FFF"/>
    </g>
</svg>
